PathFileType	4	(X/Y/Z)	45_1_23_p0_0-240_filt_butterworth.trc
DataRate	CameraRate	NumFrames	NumMarkers	Units	OrigDataRate	OrigDataStartFrame	OrigNumFrames
58.0	58.0	6	27	m	58.0	60	240
Frame#	Time	RHip			RKnee			RAnkle			RBigToe			RSmallToe			RHeel			LHip			LKnee			LAnkle			LBigToe			LSmallToe			LHeel			Neck			Head			Nose			RShoulder			RElbow			RWrist			RThumb			RIndex			RPinky			LShoulder			LElbow			LWrist			LThumb			LIndex			LPinky			
		X1	Y1	Z1	X2	Y2	Z2	X3	Y3	Z3	X4	Y4	Z4	X5	Y5	Z5	X6	Y6	Z6	X7	Y7	Z7	X8	Y8	Z8	X9	Y9	Z9	X10	Y10	Z10	X11	Y11	Z11	X12	Y12	Z12	X13	Y13	Z13	X14	Y14	Z14	X15	Y15	Z15	X16	Y16	Z16	X17	Y17	Z17	X18	Y18	Z18	X19	Y19	Z19	X20	Y20	Z20	X21	Y21	Z21	X22	Y22	Z22	X23	Y23	Z23	X24	Y24	Z24	X25	Y25	Z25	X26	Y26	Z26	X27	Y27	Z27	
60	1.0344827586206895	0.5715138139728595	0.6852746734979902	0.8072197656872557	0.5979077797310208	0.18903873348754174	0.8058699619936861	0.6359061234796822	-0.2522508932258978	0.7492257506644586	0.6198685129887125	-0.26439863324300794	0.6022391827836965	0.6801740173337849	-0.2521051145048378	0.5982346473084554	0.6211161304839008	-0.3007015145662809	0.7568728869172817	0.35553256095346847	0.6674624665804881	0.7749314205272373	0.4191083858558766	0.20198962719609054	0.739026941842081	0.43682464394856335	-0.3075788501279563	0.7770488311031527	0.4615936237466033	-0.28552236888203897	0.6069249224909739	0.408664657505579	-0.28918147482525836	0.6145351678926632	0.4493953071240337	-0.38089027953262855	0.8334286975381607	0.40607822157128404	1.235717930897406	0.8137684873564269	0.3619483334219032	1.4924395542227202	0.7783625646297281	0.4180360932195978	1.3599796974797254	0.6846254840462804	0.575704584202507	1.1814981933457591	0.8261365025777305	0.6843768402849721	0.9731881363318734	0.8362072004954927	0.6294533949435621	1.0295491859817048	0.5982449373665442	0.5696566145506283	1.0772488702154412	0.4520357523452349	0.5678882131208752	1.0638455334436085	0.47213761861567155	0.5791861547325143	1.0017224229132902	0.5434453842008391	0.2505320478203733	1.1528997563321988	0.7765002155138285	0.24071893452023274	0.9525576468933381	0.6873993556336915	0.3726876905533181	0.9965445891994205	0.4289379431829126	0.44383792157450774	1.0212328791558505	0.3806293240637379	0.44106763457806913	1.0146492411780779	0.34239171104030036	0.43771639899180137	0.9652369559290523	0.366501069524116	
61	1.0517241379310345	0.5706901780425689	0.6854744330279788	0.8079940514941135	0.598063901388244	0.18937763034003963	0.8058519469226406	0.635735646506627	-0.252065009196364	0.7483395286116149	0.6198653388081207	-0.26792274349296413	0.6060980799530457	0.6804785637695057	-0.252383928868252	0.5987434651360594	0.6207504094698647	-0.29985807362439665	0.7557949713391205	0.3557640695184306	0.6679408923842067	0.7750969723962938	0.41982868268951756	0.2024291592444513	0.739844454894426	0.43720542057910416	-0.3078801123359233	0.7769543177409977	0.46131899622960765	-0.28560307782634003	0.6065245778816337	0.4080514435944389	-0.2915666584793526	0.6171510189707347	0.4492147287024467	-0.38065546025648483	0.8331541288213257	0.40645989677016586	1.235999023408442	0.8161608553418473	0.36127578468604615	1.4927071690707252	0.7782835046602721	0.4179493527267776	1.360646832220336	0.684561041979856	0.5744330302173581	1.1831249080033468	0.8291850409443398	0.6810300341960143	0.9797449927776528	0.8242638478739903	0.6237125870764387	1.0269928148897243	0.5769360211711119	0.5607489086960886	1.0650739488943453	0.4312256071858665	0.5576404185244463	1.0528278703340386	0.44862811331892666	0.5788836026311912	0.9908059794310358	0.5149087391604614	0.25035214910916886	1.1537378659060675	0.7768054132270507	0.23968108329453175	0.9548116903717835	0.6871364293285207	0.3705360871492368	0.9934859372991457	0.42589750369600154	0.44198667857522583	1.0172429778871326	0.3705714726217177	0.4414388582287415	1.0087511629222818	0.33861060785450675	0.4342344444466597	0.9629533476318579	0.3578752514709851	
62	1.0689655172413792	0.5698256006924933	0.6860326821661032	0.8084675898828233	0.598228360124927	0.18970490636800297	0.8058651034903174	0.6356070686932386	-0.2518795813754886	0.7476309639469608	0.619910972452167	-0.2719004824308691	0.6097144457955987	0.6808099103090455	-0.25289565291453386	0.5995140741903248	0.6204112877064721	-0.2988985458960576	0.7546486777802028	0.35615555888124145	0.6684836201354469	0.7753185543795725	0.4204551247644391	0.20253032500298362	0.7409495624635343	0.4376648659837891	-0.30810731905273814	0.7768942535581197	0.46132648662286907	-0.28600105340099485	0.6062189353855219	0.4072484388705627	-0.29371260784824355	0.6202164368163077	0.4490834379498256	-0.3802942268871406	0.8328129758710503	0.4067965469664911	1.2359301218708496	0.818722235187006	0.360812959110803	1.4932372124996582	0.7782827019667714	0.4178943947440882	1.3611194882091446	0.6845192239962228	0.5732557511398204	1.1848467543059067	0.8323933556274099	0.6779027613735173	0.985329017342155	0.8129745655186609	0.6164480584634928	1.0230517619719013	0.5532985822355204	0.55101531666927	1.0474379846529558	0.4116255280920297	0.5487911255463559	1.037308980217318	0.4227279115031241	0.5820574930834661	0.9808879820332201	0.4764012712020916	0.25023587017996446	1.154606769247245	0.7771928198011697	0.23809814932026602	0.9565412968637401	0.6858691885987483	0.36861819295312126	0.9887019024146844	0.4231489090119128	0.44035259827465145	1.0109588553804705	0.36248491151257684	0.4414191764441214	1.0018957477148172	0.3350383910867992	0.43169660124790254	0.9590487962355073	0.35128396165415177	
63	1.0862068965517242	0.5689907698113992	0.6869138012074274	0.8086293981956719	0.5983852432956877	0.18990075304990073	0.8059179241202921	0.6355106959954013	-0.25172999545420105	0.7470980280880621	0.6200169870823328	-0.27575851068347723	0.6127620718184672	0.6811966697210323	-0.2538350735223229	0.6008005053640394	0.6201331003098697	-0.29792333107012703	0.7535523436959699	0.35669131708704427	0.6690634704855234	0.7755939787484097	0.4209729222445412	0.202227380064257	0.7423911703657221	0.4381840398094653	-0.3083048753028176	0.7768604300009333	0.4614844888966972	-0.286749566434669	0.6061656539285076	0.40627105801992547	-0.2955421835070082	0.6234377821240906	0.44898352770493233	-0.3797885947904201	0.8323955896013471	0.407018752053223	1.235529100925481	0.821165947179276	0.36060585610865914	1.4938814851350684	0.7783381010271753	0.4179109493670293	1.3612350597564113	0.6845876398940738	0.5722486146941954	1.186425437184498	0.8355118399229846	0.6742953735445143	0.9904106988944441	0.8004856208494443	0.6082099784063604	1.0176743534407218	0.528665510763904	0.5411344372652116	1.0261261899578948	0.3942450755917643	0.5421714681464282	1.0175957712346653	0.3957296211608383	0.5871288108480212	0.9710477395905135	0.4323750390390574	0.25016827173713424	1.1554850248823696	0.7776387984985037	0.23647768035540778	0.9571896484502661	0.6850379561881019	0.36711766312467253	0.9827201412846374	0.4208249231088248	0.4388046393732744	1.0026509255869538	0.35683993158738386	0.4404905407583427	0.9944506810693838	0.3317295208132597	0.42999041489399636	0.9535602014347707	0.34671798577446616	
64	1.103448275862069	0.5682252295744378	0.6879921152452004	0.8085185395221581	0.5985206669890513	0.18996375717686326	0.8060065534432118	0.6354403182444254	-0.2516381201677964	0.7467262276084502	0.620170103303125	-0.2791429275049833	0.6152124772283109	0.681628719165959	-0.255110296140016	0.6025097630320371	0.6199548112353552	-0.29704877051187084	0.752723266477908	0.35733089721827405	0.6696763683079021	0.7758950795176566	0.4213891423664289	0.2016468934893982	0.7440094422945628	0.4387569806971596	-0.3085527558919824	0.7768522988419152	0.46168939198634096	-0.28773617479323516	0.6063536389716305	0.4051813904153294	-0.29687754513332537	0.6260076159159557	0.44889948264390117	-0.3791672414039003	0.8319234963254754	0.407138742922963	1.2349904998361656	0.822994437932064	0.3605811128087822	1.4944282797575639	0.7784256743462912	0.4180138207520486	1.360987183703769	0.6848336177123554	0.5715128853324509	1.1878051099343205	0.83778113234964	0.6694504840377882	0.995450597418403	0.7855817998865515	0.5999058153585178	1.010946641358434	0.5045813619099319	0.5317556030736679	1.0035836994549885	0.37851867158160996	0.5379382602070693	0.995402537780009	0.36790571497310465	0.5920588427161143	0.9599706467790041	0.389352537521614	0.2501017194242617	1.1564349620945547	0.7781103720664153	0.23512829649469497	0.9565742457632709	0.6856594609498634	0.3659395121782093	0.9762625197710848	0.41911253621344935	0.4372206190260649	0.9931387462244513	0.3534330028823665	0.43835316728454854	0.9870215564239169	0.3284489341988051	0.428475306122284	0.947407210897658	0.343378637357856	
65	1.1206896551724137	0.5675448694674993	0.6891444607973399	0.808168282010737	0.5986219608876412	0.1899936230290386	0.8061115383216029	0.6353966908769056	-0.2516057065651268	0.7465044684858642	0.6203552477942904	-0.28192013634036145	0.6172957679552954	0.682040236977224	-0.2564331382987204	0.6042787630217543	0.6199315616566037	-0.29636962919322307	0.7524043748969226	0.3580030884426153	0.6703722909646018	0.7761680965775122	0.42171304267797344	0.20106519137569073	0.7454575166196317	0.4393775730415712	-0.30887399516584935	0.7768688622307496	0.4619047417310661	-0.2888016233225901	0.6066725409016558	0.40411589486931054	-0.2975204266763429	0.6271008257482527	0.44883152320427044	-0.37855534616463776	0.8314454069637798	0.4072839793082804	1.2346297133098083	0.8236117706255963	0.36061187319388543	1.4947149715079926	0.7785203416601404	0.41813329100171837	1.360611848167984	0.6851029965857418	0.5711792756773058	1.189093483313432	0.8380104526997743	0.6630591782248699	1.000477885865872	0.7684149030027507	0.5923720230641359	1.0034919652380556	0.48214689739040545	0.5237108870871153	0.9825325278302504	0.36246639475118925	0.5359955879544918	0.9739874945490341	0.3387762927853084	0.5954135486901228	0.9474272132588797	0.35292738834287374	0.2500132129871512	1.1575351776528324	0.7785759717315138	0.23406324814545165	0.95495454076579	0.6875620948943683	0.3647473586695544	0.9700308114236393	0.4180309919660227	0.4354140458356869	0.9835545553524395	0.351323290231389	0.4350504792577219	0.9801466492161	0.32467044424217467	0.42628745800516044	0.9416201413097174	0.3401525272648361	
